# xmcd
#
# Track frame offsets: 
#        150
#        19607
#        36783
#        53791
#        70181
#        81910
#        98783
#        111711
#        127445
#        145351
#        159705
#        172848
#        187487
#        202617
#        214963
#        230011
#        244433
#        262366
#        281082
#
# Disc length: 3958 seconds
#
# Revision: 0
# Processed by: cddbd v1.5.2PL0 Copyright (c) Steve Scherf et al.
# Submitted via: ExactAudioCopy v0.95b2
#
DISCID=330f7413
DTITLE=Various Artist - Milakas Dziesmas #5
DYEAR=2008
DGENRE=Country
TTITLE0=Roja - Kamenes Deja
TTITLE1=Apvedcels - Kamer Lis
TTITLE2=Klaidonis - Vecais Skroderis
TTITLE3=Edvins Bauers - Laiks Pagajis
TTITLE4=S.Glazupa and G.Jekabsons - Radio Divi Lai Skan
TTITLE5=Talbrauceji - Naktskrekli
TTITLE6=Zvaigznu Lietus - Kad vasara aiziet
TTITLE7=Zelli - Augu Dienu
TTITLE8=Veja Runa - Naktij un Tev
TTITLE9=A.Rullis and Emburgas Zeni - Pavasara Logs
TTITLE10=H.Ozols and S.Zapacka - Saulite
TTITLE11=Baltie Laci - Tavi Vardi
TTITLE12=Igeta and H.Kalvitis - Vakarilgas
TTITLE13=Kantoris 04 - Dejoar mani
TTITLE14=Tervete - Tavas Kazas
TTITLE15=V Tilciks - Mana Vasara
TTITLE16=Muza - Kad Tev Manis Nebus
TTITLE17=Inga and Normunds - Rudenigas Smeldzes
TTITLE18=Tilciks un Draugi - Pulkstenis ar Dzeguzi
EXTD=
EXTT0=
EXTT1=
EXTT2=
EXTT3=
EXTT4=
EXTT5=
EXTT6=
EXTT7=
EXTT8=
EXTT9=
EXTT10=
EXTT11=
EXTT12=
EXTT13=
EXTT14=
EXTT15=
EXTT16=
EXTT17=
EXTT18=
PLAYORDER=
